<svg xmlns="http://www.w3.org/2000/svg" width="256" height="320" viewBox="0 0 256 320"><defs><linearGradient id="bgchen" x1="0" y1="0" x2="0" y2="1"><stop offset="0" stop-color="#ffe0b8"/><stop offset="1" stop-color="#e6a765"/></linearGradient></defs><rect width="256" height="320" fill="url(#bgchen)"/><ellipse cx="128" cy="118" rx="120" ry="120" fill="#fff" opacity="0.14"/><path d="M40 320 C40 250 78 214 128 214 C178 214 216 250 216 320 Z" fill="#a76c30"/><path d="M52 320 C52 258 86 226 128 226 C170 226 204 258 204 320 Z" fill="#c98a4a"/><rect x="112" y="188" width="32" height="34" rx="14" fill="#cf9564"/><rect x="114" y="186" width="28" height="30" rx="13" fill="#e8b78a"/><ellipse cx="128" cy="128" rx="66" ry="70" fill="#cf9564"/><ellipse cx="128" cy="126" rx="62" ry="66" fill="#e8b78a"/><circle cx="66" cy="132" r="12" fill="#cf9564"/><circle cx="190" cy="132" r="12" fill="#cf9564"/><path d="M74 100 C86 74 170 74 182 100 C176 90 158 84 128 84 C98 84 80 90 74 100 Z" fill="#8a8378" opacity="0.9"/><path d="M60 96 C72 58 184 58 196 96 C196 90 176 72 128 72 C80 72 60 90 60 96 Z" fill="#7a5a34"/><rect x="120" y="52" width="16" height="16" rx="4" fill="#7a5a34"/><rect x="92" y="116" width="22" height="6" rx="3" fill="#6d675d" transform="rotate(3 103 119)"/><rect x="142" y="116" width="22" height="6" rx="3" fill="#6d675d" transform="rotate(-3 153 119)"/><ellipse cx="103" cy="134" rx="9" ry="11" fill="#fff"/><ellipse cx="153" cy="134" rx="9" ry="11" fill="#fff"/><circle cx="104" cy="136" r="5.4" fill="#3a2a22"/><circle cx="152" cy="136" r="5.4" fill="#3a2a22"/><circle cx="106" cy="134" r="1.7" fill="#fff"/><circle cx="154" cy="134" r="1.7" fill="#fff"/><ellipse cx="90" cy="152" rx="11" ry="7" fill="#ff8f9c" opacity="0.5"/><ellipse cx="166" cy="152" rx="11" ry="7" fill="#ff8f9c" opacity="0.5"/><path d="M126 148 q4 6 -2 9" fill="none" stroke="#cf9564" stroke-width="3" stroke-linecap="round"/><path d="M112 166 Q128 182 144 166" fill="none" stroke="#9c4a3c" stroke-width="4" stroke-linecap="round"/><path d="M92 158 C100 196 156 196 164 158 C150 176 106 176 92 158 Z" fill="#9a9186" opacity="0.92"/></svg>
