<svg xmlns="http://www.w3.org/2000/svg" viewBox="-40 -40 780 780"><defs><linearGradient id="sk" x1="0" y1="0" x2=".35" y2="1"><stop offset="0" stop-color="#fff3e2"/><stop offset=".55" stop-color="#fbe4cb"/><stop offset="1" stop-color="#efcda9"/></linearGradient></defs><g stroke="#6b4a3a" stroke-width="15" stroke-linejoin="round" fill="url(#sk)"><rect x="300" y="108" width="352" height="116" rx="58" transform="rotate(-16 330 166)"/><rect x="305" y="240" width="378" height="118" rx="59" transform="rotate(-3 335 299)"/><rect x="300" y="358" width="362" height="116" rx="58" transform="rotate(9 330 416)"/><rect x="285" y="458" width="310" height="110" rx="55" transform="rotate(22 315 513)"/><rect x="95" y="92" width="285" height="128" rx="64" transform="rotate(-44 200 156)"/><rect x="50" y="170" width="400" height="400" rx="180"/></g><g stroke="#6b4a3a" opacity="0.4"><path fill="none" stroke-width="10" d="M150 290 Q225 348 208 428"/><path fill="none" stroke-width="10" d="M220 300 Q292 360 278 445"/></g><ellipse cx="150" cy="270" rx="66" ry="48" fill="#fff" opacity="0.45"/></svg>