<svg viewBox="0 0 120 150" width="100%" height="100%" preserveAspectRatio="xMidYMid meet" xmlns="http://www.w3.org/2000/svg" aria-hidden="true">
    <defs>
      <radialGradient id="hpcQsteppebg" cx="50%" cy="34%" r="72%"><stop offset="0%" stop-color="#56be84" stop-opacity=".34"/><stop offset="62%" stop-color="#56be84" stop-opacity=".10"/><stop offset="100%" stop-color="#0c0f14" stop-opacity="0"/></radialGradient>
    </defs>
    <rect x="0" y="0" width="120" height="150" rx="10" fill="url(#hpcQsteppebg)"/>
    <path d="M86 22q14 22 0 44" stroke="#2a2018" stroke-width="3" fill="none"/><line x1="86" y1="22" x2="86" y2="66" stroke="#56be84" stroke-width="1.5"/>
    <path d="M30 150v-18q0-26 30-30q30 4 30 30v18z" fill="#56be84" opacity=".22"/>
    <path d="M40 150v-14q0-18 20-22q20 4 20 22v14z" fill="#56be84" opacity=".45"/>
    <ellipse cx="60" cy="58" rx="13" ry="15" fill="#caa985"/>
    <rect x="54" y="68" width="12" height="10" fill="#b8966f"/>
    <path d="M44 52q-2 -30 16 -36q18 6 16 36z" fill="#56be84"/><path d="M44 50h32l-2 6H46z" fill="#3a2c1e"/><circle cx="60" cy="16" r="4" fill="#56be84"/>
    <ellipse cx="55" cy="58" rx="2" ry="2.4" fill="#2a2018" opacity=".85"/><ellipse cx="65" cy="58" rx="2" ry="2.4" fill="#2a2018" opacity=".85"/>
    
  </svg>